<svg xmlns="http://www.w3.org/2000/svg" viewBox="0 0 61.69 50.95"><title>CommentNotification</title><g id="bbb72a44-0857-4c9d-a0f2-62c626b91592" data-name="Layer 2"><g id="a6c76d1f-1369-4a0a-aaee-b9644304e349" data-name="Objects"><path d="M53.19,0H8.5A8.49,8.49,0,0,0,0,8.5V34.35a8.5,8.5,0,0,0,8.5,8.5H18.91a6.48,6.48,0,0,1,4.61,1.91l5.38,5.38a2.75,2.75,0,0,0,3.88,0l5.39-5.38a6.48,6.48,0,0,1,4.61-1.91H53.19a8.51,8.51,0,0,0,8.5-8.5V8.5A8.5,8.5,0,0,0,53.19,0Z" style="fill:#ed4956"/><path d="M30.13,27.93a10,10,0,1,0-2.78,2.84l4,1.15Z" style="fill:#f5f5f5"/><text transform="translate(38.2 29.06)" style="font-size:19.207420349121094px;fill:#f5f5f5;font-family:OpenSans-Semibold, OpenSans Semibold;font-weight:600">9</text></g></g></svg>