<svg xmlns="http://www.w3.org/2000/svg" viewBox="0 0 61.69 50.95"><title>FollowerNotification</title><g id="b1d8bb78-948b-4d2e-b9ed-fa4df2e13a7d" data-name="Layer 2"><g id="af8c665e-3c86-4eaf-b4b1-1be9e9273948" data-name="Objects"><path d="M53.19,0H8.5A8.49,8.49,0,0,0,0,8.5V34.35a8.5,8.5,0,0,0,8.5,8.5H18.91a6.48,6.48,0,0,1,4.61,1.91l5.38,5.38a2.75,2.75,0,0,0,3.88,0l5.39-5.38a6.48,6.48,0,0,1,4.61-1.91H53.19a8.51,8.51,0,0,0,8.5-8.5V8.5A8.5,8.5,0,0,0,53.19,0Z" style="fill:#ed4956"/><text transform="translate(33.3 29.06)" style="font-size:19.207420349121094px;fill:#f5f5f5;font-family:OpenSans-Semibold, OpenSans Semibold;font-weight:600">10</text><circle cx="20.05" cy="18.24" r="4.82" style="fill:#f5f5f5"/><path d="M10.93,28.26h0a3.41,3.41,0,0,1,3.41-3.4H25.77a3.41,3.41,0,0,1,3.41,3.4h0V30.1H10.93Z" style="fill:#f5f5f5"/></g></g></svg>