<svg xmlns="http://www.w3.org/2000/svg" viewBox="0 0 61.69 50.95"><title>LikeNotification</title><g id="bd0d73d7-d02a-4ef1-a267-9a44ac2de66b" data-name="Layer 2"><g id="b6f27fe4-2741-4009-8b04-b7a380784c82" data-name="Objects"><path d="M53.19,0H8.5A8.49,8.49,0,0,0,0,8.5V34.35a8.5,8.5,0,0,0,8.5,8.5H18.91a6.48,6.48,0,0,1,4.61,1.91l5.38,5.38a2.75,2.75,0,0,0,3.88,0l5.39-5.38a6.48,6.48,0,0,1,4.61-1.91H53.19a8.51,8.51,0,0,0,8.5-8.5V8.5A8.5,8.5,0,0,0,53.19,0Z" style="fill:#ed4956"/><path d="M29.6,18.6h0a4.07,4.07,0,0,0,.06-.62A4.43,4.43,0,0,0,21,16.77,4.43,4.43,0,0,0,12.26,18a4.07,4.07,0,0,0,.06.62h-.06s.59,4.74,8.69,11.5c0,0,7.54-6.11,8.57-11.11,0-.06,0-.13,0-.19S29.59,18.67,29.6,18.6Z" style="fill:#f5f5f5"/><text transform="translate(33.3 29.06)" style="font-size:19.207420349121094px;fill:#f5f5f5;font-family:OpenSans-Semibold, OpenSans Semibold;font-weight:600">12</text></g></g></svg>