<svg xmlns="http://www.w3.org/2000/svg" viewBox="0 0 44.5 41.88"><title>Tag</title><g id="aea8b282-9ced-4a72-bd3a-137a4eeda20d" data-name="Layer 2"><g id="ae153fdb-3199-414e-a611-3f6b72110511" data-name="Objects"><path d="M26.78,18.06a4.53,4.53,0,1,1-4.53-4.53A4.53,4.53,0,0,1,26.78,18.06Z" style="fill:none;stroke:#262626;stroke-miterlimit:10;stroke-width:1.5px"/><path d="M12.94,32.29V30.23h0a3.83,3.83,0,0,1,3.81-3.81h11a3.83,3.83,0,0,1,3.81,3.81h0v2.06" style="fill:none;stroke:#262626;stroke-miterlimit:10;stroke-width:1.5px"/><path d="M41.25,6.13H29.75L24,1.22a2,2,0,0,0-2.56,0L15.75,6.13H3.25a2.5,2.5,0,0,0-2.5,2.5v30a2.5,2.5,0,0,0,2.5,2.5h38a2.5,2.5,0,0,0,2.5-2.5v-30A2.5,2.5,0,0,0,41.25,6.13Z" style="fill:none;stroke:#262626;stroke-miterlimit:10;stroke-width:1.5px"/></g></g></svg>